<svg width="60" height="142" viewBox="0 0 60 142" fill="none" xmlns="http://www.w3.org/2000/svg">
<path d="M59.7342 75.15C59.3408 74.6668 58.5445 72.8091 58.1885 72.195C57.8325 71.581 56.5085 69.5082 55.4905 68.5388C55.2407 68.2988 54.9878 68.1304 54.7473 68.0089C54.0104 66.3226 53.1173 59.54 52.6145 54.3782C52.0805 48.9203 50.3412 46.7571 50.3412 46.7571C50.591 42.2904 49.0984 37.6492 49.1452 36.5488C49.1921 35.4485 49.1452 32.0229 49.1452 32.0229C48.886 26.3998 45.9007 25.312 42.6594 24.2709C39.4149 23.2298 35.4616 21.2474 34.8714 20.7269C34.2812 20.2063 34.2781 19.3554 34.2562 17.9621C34.2344 16.6124 34.8089 15.1755 35.2742 13.5422C36.5295 13.511 37.2696 9.75187 36.6482 9.40899C36.4234 9.28431 36.2547 9.27496 36.1298 9.3186C36.3266 7.40475 36.2454 5.2509 35.3242 3.57394C33.5692 0.382119 30.1593 0.500565 30.1593 0.500565H29.8595C29.8595 0.500565 26.4495 0.382119 24.6977 3.57394C23.7765 5.2509 23.6922 7.40787 23.892 9.3186C23.7671 9.27496 23.5985 9.28431 23.3737 9.40899C22.7522 9.75187 23.4923 13.5141 24.7476 13.5422C25.2129 15.1755 25.7875 16.6124 25.7656 17.9621C25.7407 19.3554 25.7407 20.2063 25.1505 20.7269C24.5572 21.2474 20.6038 23.233 17.3625 24.2709C14.118 25.312 11.1358 26.3967 10.8767 32.0229C10.8767 32.0229 10.8298 35.4485 10.8767 36.5488C10.9235 37.6492 9.43397 42.2904 9.68066 46.7571C9.68066 46.7571 7.94132 48.9203 7.40734 54.3782C6.90459 59.5368 6.00838 66.3226 5.27455 68.0089C5.03722 68.1304 4.78428 68.3019 4.53135 68.5388C3.51335 69.5082 2.18621 71.581 1.83334 72.195C1.47736 72.8091 0.684193 74.6637 0.287612 75.15C-0.174546 75.7173 -0.112093 76.5526 0.712297 76.1599C1.53044 75.7702 2.35171 74.8196 2.68271 74.2523C3.01372 73.685 3.25104 73.5447 3.25104 73.5447C3.25104 73.5447 2.81074 77.2602 2.68896 78.3885C2.55156 79.6416 2.08004 81.3528 2.73268 81.5305C3.44777 81.7237 3.63201 80.7731 3.75067 80.0406C3.86934 79.3081 4.60317 75.7858 4.83737 75.5739C5.12778 75.3089 4.99975 75.7204 4.93417 76.5651C4.91231 76.8518 4.81551 78.2888 4.67499 79.2114C4.53447 80.1341 4.05982 82.1882 5.05284 82.0697C6.04585 81.9513 6.28318 76.3999 6.44868 75.9978C6.61418 75.5957 6.75782 75.7609 6.66102 76.7552C6.62979 77.07 6.11767 80.7949 6.30503 81.5523C6.49552 82.3097 7.22935 82.1913 7.46355 81.2219C7.69775 80.2525 7.9382 76.3313 8.1037 76.0477C8.26921 75.764 8.31605 76.2846 8.26921 76.9921C8.23486 77.5095 7.9382 80.346 8.50653 80.4645C9.07486 80.5829 9.30594 80.2338 9.46207 78.161C9.59947 76.3438 9.61821 75.337 9.71189 74.1806C9.80557 73.0242 9.92423 69.6204 9.3559 68.5793C9.3559 68.5793 10.0648 65.082 11.5324 62.0585C13.0001 59.035 15.1766 53.7392 15.0829 51.1427C15.0048 48.9857 16.8191 41.4831 17.4905 38.9458C17.553 39.5786 17.6466 40.2487 17.7809 40.9345C18.4429 44.3383 19.4391 48.4496 19.2954 51.0024C19.1549 53.5553 18.8707 57.4297 18.5866 58.9415C18.3024 60.4532 16.5974 66.3132 16.6443 73.5447C16.6911 80.7762 17.6872 89.3074 18.1588 91.1028C18.6334 92.8982 18.7677 94.6781 18.6272 95.9062C18.4866 97.1343 18.2056 99.8679 18.4898 101.71C18.4898 101.71 17.3531 106.532 18.2524 113.1C19.1518 119.67 20.7631 126.899 20.7631 127.656V127.955C20.685 128.308 20.6007 128.66 20.5226 129.012C20.429 129.439 20.3665 129.866 20.354 130.302C20.3415 130.736 20.3665 131.166 20.3727 131.596C20.379 131.898 20.3727 132.201 20.3415 132.503C20.1229 132.943 19.8606 133.366 19.5921 133.772C19.2267 134.323 18.8145 134.838 18.393 135.349C17.9683 135.863 17.5373 136.371 17.1314 136.901C16.9315 137.166 16.7379 137.434 16.5537 137.712C16.3632 138.001 16.1509 138.304 16.0822 138.65C16.0197 138.968 16.1103 139.289 16.4132 139.442C16.4725 139.473 16.5381 139.491 16.6037 139.501C16.5943 139.597 16.6037 139.697 16.6286 139.8C16.7317 140.177 17.1158 140.448 17.503 140.458C17.5561 140.638 17.6872 140.772 17.8933 140.832C18.1431 140.903 18.4179 140.829 18.6397 140.698C18.6521 140.754 18.6709 140.81 18.6959 140.866C18.8364 141.14 19.1487 141.256 19.4422 141.246C19.7888 141.237 20.0823 141.031 20.3134 140.788C20.4321 140.66 20.5414 140.526 20.6507 140.392C20.6038 140.573 20.6007 140.766 20.6694 140.941C20.7943 141.271 21.1565 141.436 21.4875 141.486C21.8029 141.53 22.1183 141.468 22.4025 141.327C22.5118 141.274 22.6211 141.206 22.7241 141.125C22.9177 141.031 23.0926 140.891 23.2425 140.744C23.5766 140.414 23.8077 140.003 23.9795 139.569C24.3635 138.609 24.4885 137.568 24.6883 136.561C24.7258 136.371 24.7664 136.181 24.8101 135.991C24.8351 136.01 24.8757 136.007 24.9069 135.972C25.3378 135.536 25.5033 134.831 25.5564 134.239C25.6189 133.516 25.5096 132.793 25.3753 132.082C25.2317 131.328 25.0911 130.577 25.0037 129.816C24.9131 129.056 24.8663 128.289 24.8288 127.525C24.8101 127.104 24.7914 126.684 24.7726 126.263C24.7726 126.232 24.7726 126.2 24.7695 126.169C24.8569 125 24.9569 123.863 25.0693 122.89C25.5439 118.826 27.1989 112.068 26.7743 108.571C26.3496 105.073 26.8679 96.1399 27.3176 93.5902C27.7673 91.0405 29.9438 76.6711 29.4723 72.5597L30 72.513L30.5277 72.5597C30.0531 76.6711 32.2296 91.0374 32.6824 93.5902C33.1352 96.143 33.6535 105.073 33.2257 108.571C32.8011 112.068 34.4561 118.826 34.9307 122.89C35.0431 123.863 35.1431 125 35.2305 126.169C35.2305 126.2 35.2274 126.232 35.2274 126.263C35.2086 126.684 35.1899 127.104 35.1712 127.525C35.1337 128.292 35.0869 129.056 34.9963 129.816C34.9057 130.58 34.7652 131.328 34.6247 132.082C34.4904 132.793 34.3811 133.513 34.4436 134.239C34.4936 134.828 34.6622 135.536 35.0931 135.972C35.1275 136.007 35.1681 136.01 35.1899 135.991C35.2336 136.181 35.2711 136.371 35.3117 136.561C35.5115 137.568 35.6365 138.609 36.0205 139.569C36.1954 140.003 36.4234 140.414 36.7575 140.744C36.9074 140.894 37.0854 141.031 37.2759 141.125C37.3789 141.206 37.4913 141.274 37.5975 141.327C37.8785 141.468 38.1971 141.53 38.5125 141.486C38.8435 141.44 39.2026 141.271 39.3306 140.941C39.3993 140.763 39.3931 140.573 39.3493 140.392C39.4586 140.526 39.5648 140.663 39.6866 140.788C39.9177 141.031 40.2112 141.237 40.5578 141.246C40.8513 141.256 41.1636 141.137 41.3041 140.866C41.3322 140.813 41.351 140.757 41.3603 140.698C41.5852 140.829 41.8569 140.903 42.1067 140.832C42.3128 140.772 42.4439 140.638 42.497 140.458C42.8842 140.445 43.2683 140.177 43.3714 139.8C43.3995 139.697 43.4057 139.597 43.3963 139.501C43.4619 139.491 43.5244 139.473 43.5868 139.442C43.8897 139.289 43.9803 138.968 43.9178 138.65C43.8491 138.304 43.6368 138.001 43.4463 137.712C43.2652 137.434 43.0716 137.166 42.8686 136.901C42.4658 136.371 42.0317 135.863 41.607 135.349C41.1886 134.841 40.7733 134.323 40.4079 133.772C40.1394 133.366 39.8771 132.943 39.6585 132.503C39.6304 132.204 39.621 131.901 39.6273 131.596C39.6335 131.163 39.6585 130.733 39.646 130.302C39.6335 129.866 39.571 129.439 39.4774 129.012C39.3993 128.66 39.315 128.308 39.2369 127.955V127.656C39.2369 126.899 40.8482 119.67 41.7476 113.1C42.6469 106.529 41.5102 101.71 41.5102 101.71C41.7944 99.8679 41.5165 97.1343 41.3728 95.9062C41.2323 94.6781 41.3666 92.8982 41.8412 91.1028C42.3159 89.3074 43.3089 80.7762 43.3557 73.5447C43.4026 66.3132 41.6976 60.4532 41.4134 58.9415C41.1293 57.4297 40.8451 53.5553 40.7046 51.0024C40.5641 48.4496 41.5571 44.3383 42.2191 40.9345C42.3534 40.2456 42.447 39.5786 42.5095 38.9458C43.1809 41.4831 44.9952 48.9857 44.9171 51.1427C44.8234 53.7423 46.9999 59.035 48.4676 62.0585C49.9353 65.082 50.6441 68.5793 50.6441 68.5793C50.0758 69.6204 50.1944 73.021 50.2881 74.1806C50.3818 75.3401 50.4005 76.3469 50.5379 78.161C50.6941 80.2338 50.9251 80.5829 51.4935 80.4645C52.0618 80.346 51.7651 77.5095 51.7308 76.9921C51.684 76.2846 51.7308 75.764 51.8963 76.0477C52.0618 76.3313 52.2991 80.2525 52.5365 81.2219C52.7738 82.1913 53.5076 82.3097 53.695 81.5523C53.8855 80.7949 53.3702 77.07 53.339 76.7552C53.2453 75.764 53.3858 75.5988 53.5513 75.9978C53.7168 76.3999 53.9542 81.9513 54.9472 82.0697C55.9402 82.1882 55.4687 80.131 55.325 79.2114C55.1814 78.2919 55.0877 76.8518 55.0658 76.5651C55.0003 75.7173 54.8722 75.3089 55.1626 75.5739C55.3968 75.7858 56.1307 79.3081 56.2493 80.0406C56.368 80.7731 56.5522 81.7237 57.2673 81.5305C57.9168 81.3528 57.4453 79.6416 57.311 78.3885C57.1893 77.2602 56.749 73.5447 56.749 73.5447C56.749 73.5447 56.9863 73.685 57.3173 74.2523C57.6483 74.8196 58.4727 75.7702 59.2877 76.1599C60.1121 76.5526 60.1745 75.7173 59.7124 75.15H59.7342Z" fill="#191919"/>
</svg>
