<svg width="237" height="237" viewBox="0 0 237 237" fill="none" xmlns="http://www.w3.org/2000/svg">
<g clip-path="url(#clip0_157_420)">
<path d="M179.276 60.595L119.658 34.9194C96.8565 25.0994 70.4151 35.6217 60.5951 58.4235L34.9194 118.042C25.0994 140.843 35.6218 167.285 58.4236 177.105L118.042 202.781C140.844 212.601 167.285 202.078 177.105 179.276L202.781 119.658C212.601 96.8564 202.078 70.415 179.276 60.595Z" fill="url(#paint0_linear_157_420)"/>
<path d="M91.6877 50.5939C98.5283 47.8717 106.018 47.9759 112.781 50.8885L172.399 76.5641C186.36 82.5764 192.824 98.8207 186.809 112.775L161.134 172.394C158.221 179.157 152.851 184.378 146.01 187.101C139.17 189.823 131.68 189.719 124.917 186.806L65.2988 161.13C51.3385 155.118 44.8741 138.874 50.8886 124.919L76.5642 65.3009C79.4768 58.538 84.8471 53.3161 91.6877 50.5939Z" fill="url(#paint1_linear_157_420)"/>
<path style="mix-blend-mode:overlay" d="M91.6877 50.5939C98.5283 47.8717 106.018 47.9759 112.781 50.8885L172.399 76.5641C186.36 82.5764 192.824 98.8207 186.809 112.775L161.134 172.394C158.221 179.157 152.851 184.378 146.01 187.101C139.17 189.823 131.68 189.719 124.917 186.806L65.2988 161.13C51.3385 155.118 44.8741 138.874 50.8886 124.919L76.5697 65.2987C79.4823 58.5358 84.8526 53.3139 91.6932 50.5917L91.6877 50.5939Z" fill="url(#paint2_radial_157_420)"/>
<g style="mix-blend-mode:soft-light">
<path d="M93.1492 54.2667C99.0078 51.9352 105.424 52.0231 111.218 54.5182L170.836 80.1938C182.795 85.3443 188.333 99.2585 183.18 111.212L157.504 170.83C155.009 176.624 150.407 181.096 144.549 183.428C138.69 185.759 132.274 185.671 126.48 183.176L66.862 157.501C54.9027 152.35 49.3655 138.436 54.5182 126.482L80.1939 66.8641C82.6889 61.0706 87.2906 56.5981 93.1492 54.2667ZM91.6877 50.5939C84.8471 53.3161 79.4768 58.538 76.5642 65.3009L50.8886 124.919C44.8763 138.879 51.3407 155.124 65.2988 161.13L124.917 186.806C131.68 189.719 139.17 189.823 146.01 187.101C152.851 184.378 158.221 179.157 161.134 172.394L186.809 112.775C192.822 98.8151 186.357 82.5708 172.399 76.5641L112.781 50.8885C106.018 47.9759 98.5283 47.8717 91.6877 50.5939Z" fill="#3F3F3F"/>
</g>
<path d="M177.399 64.9539L117.785 39.2705C107.921 35.0274 96.9923 34.8717 87.0115 38.8435C77.0308 42.8153 69.1992 50.4433 64.9461 60.2975L39.2782 119.919C30.5048 140.28 39.9365 163.981 60.3008 172.746L119.913 198.424C129.779 202.673 140.708 202.829 150.689 198.857C160.669 194.885 168.505 187.268 172.752 177.397L198.422 117.781C207.19 97.4225 197.758 73.7217 177.399 64.9539ZM191.892 114.969L166.214 174.581C162.722 182.7 156.273 188.974 148.057 192.244C139.84 195.513 130.844 195.385 122.729 191.886L63.1132 166.216C46.3608 159.001 38.596 139.489 45.8085 122.731L71.4897 63.111C74.9813 54.993 81.4301 48.7186 89.6466 45.4489C97.8631 42.1791 106.86 42.307 114.974 45.8064L174.59 71.4765C191.347 78.7022 199.11 98.2088 191.895 114.961L191.892 114.969Z" fill="url(#paint3_linear_157_420)"/>
<g style="mix-blend-mode:soft-light">
<path d="M152.769 107.691L129.781 107.807L129.664 84.819C129.657 83.4397 128.535 82.3288 127.156 82.3358L110.174 82.422C108.795 82.429 107.684 83.5512 107.691 84.9305L107.808 107.919L84.8193 108.036C83.44 108.043 82.3291 109.165 82.3361 110.544L82.4222 127.526C82.4292 128.905 83.5515 130.016 84.9308 130.009L107.919 129.892L108.036 152.881C108.043 154.26 109.165 155.371 110.544 155.364L127.526 155.278C128.905 155.271 130.016 154.148 130.009 152.769L129.892 129.781L152.881 129.664C154.26 129.657 155.371 128.535 155.364 127.155L155.278 110.174C155.271 108.795 154.149 107.684 152.769 107.691Z" fill="#3F3F3F"/>
</g>
<path d="M126.503 85.5042L126.616 107.824L126.632 110.982L129.797 110.966L152.117 110.853L152.196 126.503L129.876 126.616L126.712 126.632L126.728 129.797L126.841 152.117L111.191 152.196L111.078 129.877L111.062 126.712L107.903 126.728L85.5835 126.841L85.504 111.191L107.824 111.078L110.982 111.062L110.966 107.903L110.853 85.5836L126.503 85.5042Z" fill="white"/>
<path d="M126.503 85.5042L126.632 110.988L118.844 118.856L118.675 85.5439L126.503 85.5042Z" fill="#C7C7C7"/>
<path d="M118.856 118.856L111.068 126.712L111.197 152.196L119.025 152.157L118.856 118.856Z" fill="#C7C7C7"/>
<path d="M85.5436 119.019L118.862 118.85L110.988 111.062L85.5039 111.191L85.5436 119.019Z" fill="#C7C7C7"/>
<path d="M152.156 118.675L152.196 126.503L126.718 126.632L118.844 118.844L152.156 118.675Z" fill="#C7C7C7"/>
<path d="M118.726 94.3869L110.859 85.5835L126.503 85.5041L118.726 94.3869L110.859 85.5835L126.503 85.5041L118.726 94.3869Z" fill="white"/>
<path d="M118.974 143.307L126.841 152.117L111.197 152.196L118.974 143.307L126.841 152.117L111.197 152.196L118.974 143.307Z" fill="white"/>
<path d="M143.313 118.726L152.116 110.859L152.196 126.503L143.313 118.726L152.116 110.859L152.196 126.503L143.313 118.726Z" fill="white"/>
<path d="M94.3927 118.974L85.5833 126.841L85.5039 111.197L94.3927 118.974L85.5833 126.841L85.5039 111.197L94.3927 118.974Z" fill="white"/>
</g>
<defs>
<linearGradient id="paint0_linear_157_420" x1="32.552" y1="153.192" x2="205.642" y2="84.3113" gradientUnits="userSpaceOnUse">
<stop stop-color="white"/>
<stop offset="0.17" stop-color="#4A4A4A"/>
<stop offset="0.21" stop-color="#515151"/>
<stop offset="0.26" stop-color="#646464"/>
<stop offset="0.33" stop-color="#848484"/>
<stop offset="0.41" stop-color="#B1B1B1"/>
<stop offset="0.49" stop-color="#EAEAEA"/>
<stop offset="0.52" stop-color="white"/>
<stop offset="0.89" stop-color="#4A4A4A"/>
<stop offset="1" stop-color="#E9E9E9"/>
</linearGradient>
<linearGradient id="paint1_linear_157_420" x1="147.353" y1="190.474" x2="93.2133" y2="54.4275" gradientUnits="userSpaceOnUse">
<stop stop-color="#C7BEFF"/>
<stop offset="0.12" stop-color="#BD96E3"/>
<stop offset="0.17" stop-color="#A680C6"/>
<stop offset="0.26" stop-color="#84619A"/>
<stop offset="0.32" stop-color="#6E4D7F"/>
<stop offset="0.36" stop-color="#674675"/>
<stop offset="0.45" stop-color="#6E4E7E"/>
<stop offset="0.6" stop-color="#836499"/>
<stop offset="0.79" stop-color="#A587C5"/>
<stop offset="1" stop-color="#D2B7FF"/>
</linearGradient>
<radialGradient id="paint2_radial_157_420" cx="0" cy="0" r="1" gradientUnits="userSpaceOnUse" gradientTransform="translate(107.175 88.0734) rotate(-21.7) scale(82.6338 82.6338)">
<stop stop-color="white" stop-opacity="0.9"/>
<stop offset="0.17" stop-color="white" stop-opacity="0.71"/>
<stop offset="0.47" stop-color="white" stop-opacity="0.41"/>
<stop offset="0.72" stop-color="white" stop-opacity="0.19"/>
<stop offset="0.9" stop-color="white" stop-opacity="0.05"/>
<stop offset="1" stop-color="white" stop-opacity="0"/>
</radialGradient>
<linearGradient id="paint3_linear_157_420" x1="38.8656" y1="150.68" x2="198.835" y2="87.0204" gradientUnits="userSpaceOnUse">
<stop stop-color="white"/>
<stop offset="0.44" stop-color="#4A4A4A"/>
<stop offset="0.56" stop-color="#E9E9E9"/>
</linearGradient>
<clipPath id="clip0_157_420">
<rect width="181.7" height="181.7" fill="white" transform="translate(0.846802 68.0298) rotate(-21.7)"/>
</clipPath>
</defs>
</svg>
