<svg width="164" height="56" viewBox="0 0 164 56" fill="none" xmlns="http://www.w3.org/2000/svg">
<g clip-path="url(#clip0_157_296)">
<path d="M51.8421 52.5937C51.0011 51.1672 50.3188 48.9225 49.794 45.8573L42.7373 1.0549C42.5592 -0.0741206 41.0916 -0.387467 40.4724 0.570861L37.8474 4.63827C37.4378 5.2735 37.2767 6.03796 37.3942 6.78536L41.3558 31.8921L41.9957 35.6352L42.232 37.2994L42.9058 41.3644L43.6499 45.8586C44.0171 47.7094 44.2013 49.0822 44.2013 49.9796C44.2013 50.6136 44.1225 51.222 43.965 51.8024C43.7541 52.807 43.2681 53.6252 42.5071 54.2604C41.746 54.8944 40.6032 55.3431 39.0811 55.6064L39.0024 56.0027H56.1745L56.2533 55.6064C54.1519 55.0261 52.6819 54.0214 51.8421 52.5949V52.5937Z" fill="url(#paint0_linear_157_296)"/>
<path d="M35.7557 44.1872C35.3122 43.508 34.9498 42.4363 34.6723 40.9781L30.6695 19.3779H25.0004L24.9592 19.5657C25.5966 19.6937 26.0692 19.8571 26.3758 20.0583C26.6824 20.2594 26.8339 20.5252 26.8339 20.852C26.8339 21.002 26.8206 21.1275 26.7927 21.2287C26.7636 21.4055 26.6255 21.7469 26.3746 22.248L20.9879 30.567C20.9879 30.567 19.6354 34.2137 24.6005 34.399C29.8987 34.5953 30.5544 36.3559 30.615 36.5754L30.6186 36.5876V36.5973L30.6671 36.8985L30.7895 37.5642H30.7907L31.4184 40.9781C31.6111 41.8584 31.7093 42.5144 31.7093 42.9411C31.7093 43.2422 31.6669 43.5336 31.5845 43.8092C31.473 44.2871 31.2161 44.6773 30.8125 44.9809C30.4102 45.282 29.8054 45.4966 28.9995 45.6222L28.9571 45.8112H38.0449L38.0873 45.6222C36.9761 45.3442 36.1968 44.8663 35.7521 44.1872H35.7557ZM21.6908 31.0254L27.7949 21.6043L30.1217 33.8772C19.433 35.3147 21.6908 31.0254 21.6908 31.0254Z" fill="white"/>
<path d="M17.6807 38.9771V38.9686C17.6783 38.9137 17.6747 38.8601 17.6698 38.8064C17.6686 38.7918 17.6674 38.7759 17.6662 38.7613C17.6662 38.754 17.665 38.7454 17.6638 38.7381C17.6601 38.7016 17.6565 38.665 17.6516 38.6284C17.6444 38.5711 17.6347 38.5138 17.625 38.4577C17.6165 38.4102 17.608 38.3626 17.5983 38.3163C17.5935 38.2931 17.5874 38.2699 17.5814 38.2468C17.5814 38.2431 17.5801 38.2382 17.5789 38.2346C17.5704 38.1968 17.5607 38.159 17.5498 38.1212C17.5498 38.1163 17.5474 38.1114 17.5462 38.1066C17.5341 38.0639 17.522 38.0212 17.5086 37.9798C17.5074 37.9749 17.5062 37.9688 17.5038 37.9639C17.5026 37.9615 17.5014 37.9578 17.5014 37.9554C17.4892 37.92 17.4783 37.8859 17.465 37.8517C17.459 37.8322 17.4517 37.8139 17.4444 37.7944C17.4262 37.7944 17.4093 37.7969 17.3911 37.7981C17.3414 37.8017 17.2917 37.8054 17.242 37.8115C17.2069 37.8152 17.1717 37.82 17.1354 37.8249C17.1317 37.8249 17.1269 37.8249 17.1233 37.8249C17.0893 37.8298 17.0554 37.8359 17.0203 37.842C16.9681 37.8505 16.9172 37.8615 16.8651 37.8725C16.8251 37.881 16.7852 37.8908 16.7464 37.9005C16.704 37.9115 16.6615 37.9225 16.6203 37.9346C16.6179 37.9346 16.6167 37.9359 16.6155 37.9359C16.5743 37.9481 16.5331 37.9603 16.4931 37.9737C16.4507 37.9883 16.4095 38.0017 16.3683 38.0176C16.2847 38.048 16.2035 38.081 16.1223 38.1163C16.0411 38.1517 15.9611 38.1895 15.8823 38.2321C15.8048 38.2724 15.7272 38.3163 15.6508 38.3626C15.6096 38.3882 15.5684 38.4138 15.5284 38.4406C15.4945 38.4614 15.4606 38.4845 15.4279 38.5077C15.3551 38.5589 15.2836 38.6113 15.2134 38.6674C15.1443 38.7223 15.0764 38.7796 15.0098 38.8393C14.9443 38.8991 14.8801 38.9613 14.8183 39.0247C14.788 39.0564 14.7565 39.0881 14.7274 39.121C14.6971 39.1539 14.668 39.1868 14.6389 39.221C14.4959 39.388 14.3663 39.5684 14.2536 39.7562C14.2208 39.8111 14.1893 39.8672 14.1602 39.9245C14.1287 39.9842 14.0984 40.0452 14.0706 40.1061C14.1299 39.8867 14.1881 39.6489 14.2487 39.4307C14.1421 39.5367 14.0415 39.6477 13.9445 39.7635C13.8973 39.822 13.85 39.8806 13.804 39.9415C13.7809 39.972 13.7591 40.0013 13.7361 40.033C13.6925 40.0939 13.6488 40.1561 13.6076 40.2195C13.3725 40.5792 13.1835 40.9694 13.0526 41.3766C13.0356 41.4254 13.0211 41.4753 13.0065 41.5253C13.0005 41.5461 12.9956 41.5668 12.9896 41.5863C12.975 41.6412 12.9605 41.696 12.9484 41.7509C12.8635 42.1228 12.8272 42.5032 12.8478 42.8824C12.8199 42.6787 12.7157 42.48 12.5897 42.3178C12.5957 42.3471 12.6018 42.3764 12.6066 42.4056C12.6163 42.4617 12.6212 42.519 12.6248 42.5751C12.6587 43.1811 12.3582 43.7822 12.0819 44.3393C12.0177 44.4698 11.945 44.5966 11.871 44.7234C11.8347 44.7868 11.7983 44.8502 11.762 44.9124C11.7438 44.9441 11.7268 44.977 11.7086 45.0087C11.6747 45.0709 11.642 45.1331 11.6105 45.1965C11.5959 45.2282 11.5814 45.2599 11.5668 45.2928C11.5244 45.3879 11.4905 45.4818 11.4663 45.5781C11.436 45.6988 11.4214 45.8195 11.4311 45.9427C11.4323 45.9609 11.4335 45.9792 11.4372 45.9975C11.4372 46.0024 11.4372 46.0085 11.4372 46.0134C11.4469 46.0841 11.465 46.1548 11.4917 46.2255L11.5184 46.2426L11.316 46.5547C11.2687 46.5328 11.2178 46.5157 11.1657 46.5023C10.9512 46.4474 10.7246 46.5364 10.6058 46.7254C10.0799 47.5582 8.64988 49.8077 8.01728 50.6599C7.29743 51.6317 6.61757 52.4071 5.97528 52.9887C4.63617 54.2055 2.83654 55.0773 0.580044 55.604L0.500061 56.0002H13.5773L13.6561 55.604C12.4467 55.3406 11.5414 54.998 10.9379 54.5737C10.3332 54.1518 10.0326 53.5434 10.0326 52.7509C10.0326 52.3498 10.1296 51.8511 10.3235 51.2549C10.6083 50.3783 11.1027 49.2919 11.8068 47.9934C11.8928 47.8349 11.9328 47.6642 11.9328 47.4984C11.9328 47.3448 11.8989 47.1948 11.8347 47.0595L12.1122 46.6328L12.1425 46.6523C12.2564 46.6462 12.3618 46.6218 12.46 46.584C12.4842 46.5742 12.5085 46.5645 12.5327 46.5535C12.546 46.5474 12.5582 46.5401 12.5715 46.534C12.5945 46.5218 12.6187 46.5084 12.6418 46.495C12.6696 46.4779 12.6987 46.4584 12.7254 46.4389C12.7714 46.406 12.8163 46.3706 12.8587 46.3328C12.9084 46.2889 12.9569 46.2414 13.0041 46.1914C13.0271 46.1658 13.0514 46.139 13.0756 46.1121C13.112 46.0695 13.1483 46.0268 13.1847 45.9817C13.2259 45.9305 13.2671 45.8768 13.3095 45.822C13.3968 45.7073 13.4828 45.5891 13.5725 45.4757C13.6004 45.4403 13.6282 45.4062 13.6561 45.3721C13.7409 45.2696 13.827 45.1648 13.9142 45.0624C14.0027 44.9599 14.0936 44.8587 14.1881 44.7624C14.5032 44.4405 14.8571 44.1748 15.2885 44.0894C15.1116 44.0443 14.9152 44.026 14.7371 44.0626C14.7165 44.0662 14.6971 44.0711 14.6777 44.0772C14.6765 44.0772 14.6741 44.0784 14.6729 44.0784H14.6704C14.7444 44.0504 14.8171 44.0199 14.8898 43.9882C14.9976 43.9394 15.1031 43.8858 15.2073 43.8273C16.1356 43.3018 16.8627 42.3995 17.2457 41.3973C17.1136 41.5046 16.973 41.6168 16.8373 41.7253C16.7924 41.7619 16.7476 41.7972 16.704 41.8326C16.7403 41.7911 16.7755 41.7497 16.8094 41.707C16.8179 41.696 16.8264 41.6851 16.8348 41.6741C16.8615 41.6412 16.8857 41.6082 16.91 41.5741C16.9197 41.5631 16.9269 41.5522 16.9354 41.5412C16.9657 41.4985 16.9948 41.4546 17.0251 41.4095C17.0263 41.4071 17.0287 41.4034 17.0299 41.401C17.0602 41.3534 17.0905 41.3046 17.1184 41.2547C17.1402 41.2193 17.1608 41.1839 17.179 41.1474C17.196 41.1193 17.2105 41.0901 17.2251 41.062C17.2457 41.0218 17.2651 40.9815 17.2844 40.9413L17.2881 40.934C17.2881 40.934 17.2917 40.9267 17.2929 40.923C17.3111 40.884 17.3293 40.8438 17.3462 40.8023C17.3535 40.7865 17.3596 40.7718 17.3656 40.756C17.3862 40.7072 17.4056 40.6584 17.4226 40.6097C17.4274 40.5963 17.4323 40.5841 17.4371 40.5707C17.442 40.5585 17.4456 40.5475 17.4493 40.5353C17.4638 40.4938 17.4771 40.4524 17.4905 40.4109C17.5062 40.3634 17.5195 40.3146 17.5329 40.2658C17.5401 40.239 17.5474 40.2134 17.5535 40.1878C17.5583 40.1683 17.5632 40.1476 17.568 40.1281C17.5741 40.1049 17.5789 40.0817 17.585 40.0574C17.5983 39.9964 17.6104 39.9367 17.6201 39.8757L17.6238 39.8537C17.6395 39.7635 17.6516 39.6721 17.6613 39.5794C17.6638 39.5575 17.6662 39.5343 17.6686 39.5111C17.671 39.488 17.6722 39.4648 17.6735 39.4416C17.6759 39.4051 17.6783 39.3685 17.6807 39.3307V39.327C17.6831 39.2746 17.6844 39.221 17.6844 39.1673V39.1332C17.6844 39.0807 17.6831 39.0283 17.6807 38.9759V38.9771ZM15.6484 38.6906C15.2109 39.0722 14.8183 39.5038 14.479 39.9781C14.7674 39.4697 15.1734 39.0271 15.6484 38.6906ZM13.518 40.895C13.3725 41.2681 13.2332 41.679 13.1193 42.063C13.1168 42.0679 13.1156 42.0728 13.1144 42.0776C13.1738 41.6631 13.3119 41.2583 13.518 40.895ZM12.517 44.1004C12.517 44.1004 12.5145 44.1077 12.5121 44.1114C12.4345 44.3235 12.3061 44.5125 12.1558 44.6771C12.26 44.4722 12.3849 44.2881 12.517 44.1004ZM14.3081 43.1335C14.771 42.3873 15.4751 41.2534 15.9284 40.5146C15.4436 41.4193 14.9007 42.2947 14.3081 43.1335ZM13.5943 43.965C13.278 44.4722 12.9484 44.9746 12.6078 45.4696C12.4818 45.6525 12.3558 45.8329 12.2285 46.0109C12.2031 46.0487 12.1752 46.0865 12.1485 46.1243C12.0625 46.245 11.9752 46.3657 11.8868 46.4852L11.7559 46.3999C11.8298 46.2706 11.905 46.1414 11.9801 46.0134C12.4115 45.277 12.8805 44.5149 13.3592 43.8102C13.8258 43.1262 15.0607 41.2864 15.5369 40.5768C16.0241 39.8611 16.5076 39.1417 16.9972 38.4272L17.0215 38.4431C15.9793 40.1488 14.6498 42.2544 13.5943 43.965Z" fill="#F051A3"/>
<path d="M17.6807 38.9771V38.9686C17.6783 38.9137 17.6747 38.8601 17.6698 38.8064C17.6686 38.7918 17.6674 38.7759 17.6662 38.7613C17.6662 38.754 17.665 38.7454 17.6638 38.7381C17.6601 38.7016 17.6565 38.665 17.6516 38.6284C17.6444 38.5711 17.6347 38.5138 17.625 38.4577C17.6165 38.4102 17.608 38.3626 17.5983 38.3163C17.5935 38.2931 17.5874 38.2699 17.5814 38.2468C17.5814 38.2431 17.5801 38.2382 17.5789 38.2346C17.5704 38.1968 17.5607 38.159 17.5498 38.1212C17.5498 38.1163 17.5474 38.1114 17.5462 38.1066C17.5341 38.0639 17.522 38.0212 17.5086 37.9798C17.5074 37.9749 17.5062 37.9688 17.5038 37.9639C17.5026 37.9615 17.5014 37.9578 17.5014 37.9554C17.4892 37.92 17.4783 37.8859 17.465 37.8517C17.459 37.8322 17.4517 37.8139 17.4444 37.7944C17.4262 37.7944 17.4093 37.7969 17.3911 37.7981C17.3414 37.8017 17.2917 37.8054 17.242 37.8115C17.2069 37.8152 17.1717 37.82 17.1354 37.8249C17.1317 37.8249 17.1269 37.8249 17.1233 37.8249C17.0893 37.8298 17.0554 37.8359 17.0203 37.842C16.9681 37.8505 16.9172 37.8615 16.8651 37.8725C16.8251 37.881 16.7852 37.8908 16.7464 37.9005C16.704 37.9115 16.6615 37.9225 16.6203 37.9346C16.6179 37.9346 16.6167 37.9359 16.6155 37.9359C16.5743 37.9481 16.5331 37.9603 16.4931 37.9737C16.4507 37.9883 16.4095 38.0017 16.3683 38.0176C16.2847 38.048 16.2035 38.081 16.1223 38.1163C16.0411 38.1517 15.9611 38.1895 15.8823 38.2321C15.8048 38.2724 15.7272 38.3163 15.6508 38.3626C15.6096 38.3882 15.5684 38.4138 15.5284 38.4406C15.4945 38.4614 15.4606 38.4845 15.4279 38.5077C15.3551 38.5589 15.2836 38.6113 15.2134 38.6674C15.1443 38.7223 15.0764 38.7796 15.0098 38.8393C14.9443 38.8991 14.8801 38.9613 14.8183 39.0247C14.788 39.0564 14.7565 39.0881 14.7274 39.121C14.6971 39.1539 14.668 39.1868 14.6389 39.221C14.4959 39.388 14.3663 39.5684 14.2536 39.7562C14.2208 39.8111 14.1893 39.8672 14.1602 39.9245C14.1287 39.9842 14.0984 40.0452 14.0706 40.1061C14.1299 39.8867 14.1881 39.6489 14.2487 39.4307C14.1421 39.5367 14.0415 39.6477 13.9445 39.7635C13.8973 39.822 13.85 39.8806 13.804 39.9415C13.7809 39.972 13.7591 40.0013 13.7361 40.033C13.6925 40.0939 13.6488 40.1561 13.6076 40.2195C13.3725 40.5792 13.1835 40.9694 13.0526 41.3766C13.0356 41.4254 13.0211 41.4753 13.0065 41.5253C13.0005 41.5461 12.9956 41.5668 12.9896 41.5863C12.975 41.6412 12.9605 41.696 12.9484 41.7509C12.8635 42.1228 12.8272 42.5032 12.8478 42.8824C12.8199 42.6787 12.7157 42.48 12.5897 42.3178C12.5957 42.3471 12.6018 42.3764 12.6066 42.4056C12.6163 42.4617 12.6212 42.519 12.6248 42.5751C12.6587 43.1811 12.3582 43.7822 12.0819 44.3393C12.0177 44.4698 11.945 44.5966 11.871 44.7234C11.8347 44.7868 11.7983 44.8502 11.762 44.9124C11.7438 44.9441 11.7268 44.977 11.7086 45.0087C11.6747 45.0709 11.642 45.1331 11.6105 45.1965C11.5959 45.2282 11.5814 45.2599 11.5668 45.2928C11.5244 45.3879 11.4905 45.4818 11.4663 45.5781C11.436 45.6988 11.4214 45.8195 11.4311 45.9427C11.4323 45.9609 11.4335 45.9792 11.4372 45.9975C11.4372 46.0024 11.4372 46.0085 11.4372 46.0134C11.4469 46.0841 11.465 46.1548 11.4917 46.2255L11.5184 46.2426L11.316 46.5547C11.2687 46.5328 11.2178 46.5157 11.1657 46.5023C10.9512 46.4474 10.7246 46.5364 10.6058 46.7254C10.0799 47.5582 8.64988 49.8077 8.01728 50.6599C7.29743 51.6317 6.61757 52.4071 5.97528 52.9887C4.63617 54.2055 2.83654 55.0773 0.580044 55.604L0.500061 56.0002H13.5773L13.6561 55.604C12.4467 55.3406 11.5414 54.998 10.9379 54.5737C10.3332 54.1518 10.0326 53.5434 10.0326 52.7509C10.0326 52.3498 10.1296 51.8511 10.3235 51.2549C10.6083 50.3783 11.1027 49.2919 11.8068 47.9934C11.8928 47.8349 11.9328 47.6642 11.9328 47.4984C11.9328 47.3448 11.8989 47.1948 11.8347 47.0595L12.1122 46.6328L12.1425 46.6523C12.2564 46.6462 12.3618 46.6218 12.46 46.584C12.4842 46.5742 12.5085 46.5645 12.5327 46.5535C12.546 46.5474 12.5582 46.5401 12.5715 46.534C12.5945 46.5218 12.6187 46.5084 12.6418 46.495C12.6696 46.4779 12.6987 46.4584 12.7254 46.4389C12.7714 46.406 12.8163 46.3706 12.8587 46.3328C12.9084 46.2889 12.9569 46.2414 13.0041 46.1914C13.0271 46.1658 13.0514 46.139 13.0756 46.1121C13.112 46.0695 13.1483 46.0268 13.1847 45.9817C13.2259 45.9305 13.2671 45.8768 13.3095 45.822C13.3968 45.7073 13.4828 45.5891 13.5725 45.4757C13.6004 45.4403 13.6282 45.4062 13.6561 45.3721C13.7409 45.2696 13.827 45.1648 13.9142 45.0624C14.0027 44.9599 14.0936 44.8587 14.1881 44.7624C14.5032 44.4405 14.8571 44.1748 15.2885 44.0894C15.1116 44.0443 14.9152 44.026 14.7371 44.0626C14.7165 44.0662 14.6971 44.0711 14.6777 44.0772C14.6765 44.0772 14.6741 44.0784 14.6729 44.0784H14.6704C14.7444 44.0504 14.8171 44.0199 14.8898 43.9882C14.9976 43.9394 15.1031 43.8858 15.2073 43.8273C16.1356 43.3018 16.8627 42.3995 17.2457 41.3973C17.1136 41.5046 16.973 41.6168 16.8373 41.7253C16.7924 41.7619 16.7476 41.7972 16.704 41.8326C16.7403 41.7911 16.7755 41.7497 16.8094 41.707C16.8179 41.696 16.8264 41.6851 16.8348 41.6741C16.8615 41.6412 16.8857 41.6082 16.91 41.5741C16.9197 41.5631 16.9269 41.5522 16.9354 41.5412C16.9657 41.4985 16.9948 41.4546 17.0251 41.4095C17.0263 41.4071 17.0287 41.4034 17.0299 41.401C17.0602 41.3534 17.0905 41.3046 17.1184 41.2547C17.1402 41.2193 17.1608 41.1839 17.179 41.1474C17.196 41.1193 17.2105 41.0901 17.2251 41.062C17.2457 41.0218 17.2651 40.9815 17.2844 40.9413L17.2881 40.934C17.2881 40.934 17.2917 40.9267 17.2929 40.923C17.3111 40.884 17.3293 40.8438 17.3462 40.8023C17.3535 40.7865 17.3596 40.7718 17.3656 40.756C17.3862 40.7072 17.4056 40.6584 17.4226 40.6097C17.4274 40.5963 17.4323 40.5841 17.4371 40.5707C17.442 40.5585 17.4456 40.5475 17.4493 40.5353C17.4638 40.4938 17.4771 40.4524 17.4905 40.4109C17.5062 40.3634 17.5195 40.3146 17.5329 40.2658C17.5401 40.239 17.5474 40.2134 17.5535 40.1878C17.5583 40.1683 17.5632 40.1476 17.568 40.1281C17.5741 40.1049 17.5789 40.0817 17.585 40.0574C17.5983 39.9964 17.6104 39.9367 17.6201 39.8757L17.6238 39.8537C17.6395 39.7635 17.6516 39.6721 17.6613 39.5794C17.6638 39.5575 17.6662 39.5343 17.6686 39.5111C17.671 39.488 17.6722 39.4648 17.6735 39.4416C17.6759 39.4051 17.6783 39.3685 17.6807 39.3307V39.327C17.6831 39.2746 17.6844 39.221 17.6844 39.1673V39.1332C17.6844 39.0807 17.6831 39.0283 17.6807 38.9759V38.9771ZM15.6484 38.6906C15.2109 39.0722 14.8183 39.5038 14.479 39.9781C14.7674 39.4697 15.1734 39.0271 15.6484 38.6906ZM13.518 40.895C13.3725 41.2681 13.2332 41.679 13.1193 42.063C13.1168 42.0679 13.1156 42.0728 13.1144 42.0776C13.1738 41.6631 13.3119 41.2583 13.518 40.895ZM12.517 44.1004C12.517 44.1004 12.5145 44.1077 12.5121 44.1114C12.4345 44.3235 12.3061 44.5125 12.1558 44.6771C12.26 44.4722 12.3849 44.2881 12.517 44.1004ZM14.3081 43.1335C14.771 42.3873 15.4751 41.2534 15.9284 40.5146C15.4436 41.4193 14.9007 42.2947 14.3081 43.1335ZM13.5943 43.965C13.278 44.4722 12.9484 44.9746 12.6078 45.4696C12.4818 45.6525 12.3558 45.8329 12.2285 46.0109C12.2031 46.0487 12.1752 46.0865 12.1485 46.1243C12.0625 46.245 11.9752 46.3657 11.8868 46.4852L11.7559 46.3999C11.8298 46.2706 11.905 46.1414 11.9801 46.0134C12.4115 45.277 12.8805 44.5149 13.3592 43.8102C13.8258 43.1262 15.0607 41.2864 15.5369 40.5768C16.0241 39.8611 16.5076 39.1417 16.9972 38.4272L17.0215 38.4431C15.9793 40.1488 14.6498 42.2544 13.5943 43.965Z" fill="url(#paint1_linear_157_296)"/>
<path d="M163.5 32.7143C162.425 31.2256 160.43 30.3965 158.621 30.666C158.9 30.577 159.197 30.4721 159.474 30.3843C157.876 30.0381 156.085 30.3209 154.766 31.2963C154.966 31.122 155.107 30.8684 155.191 30.6148C154.555 31.2731 153.563 31.3841 152.655 31.4902C151.748 31.595 150.746 31.4963 150.206 32.2351V32.2107H149.254V32.1827L147.638 31.8194C147.638 31.8194 147.402 32.0718 147.051 32.2839H49.9915V33.2471H147.134C147.438 33.4471 147.638 33.6604 147.638 33.6604L149.254 33.2983V33.2703H150.206V33.2471C150.746 33.9872 151.748 33.8323 152.655 33.9372C153.563 34.0421 154.555 34.1542 155.191 34.8126C155.107 34.5602 154.966 34.3054 154.766 34.1311C156.085 35.1065 157.876 35.3881 159.474 35.0443C159.197 34.9541 158.9 34.8504 158.621 34.7614C160.43 35.0296 162.425 34.2018 163.5 32.7143ZM152.343 33.6178C152.633 33.5678 152.934 33.5629 153.221 33.63C152.926 33.6434 152.637 33.647 152.343 33.6178ZM155.824 34.4091C156.323 34.5578 156.872 34.6968 157.382 34.8053C156.846 34.7724 156.312 34.637 155.824 34.4091ZM154.131 32.9179C153.032 32.9423 151.879 32.9143 150.781 32.8655C150.602 32.8569 150.423 32.8472 150.242 32.8374C150.23 32.8362 150.218 32.8362 150.206 32.835V32.6363C150.218 32.635 150.23 32.635 150.242 32.6338C151.536 32.5558 152.84 32.5302 154.131 32.5521C156.717 32.6094 159.926 32.6472 162.501 32.7167V32.7533C161.385 32.7826 160.269 32.8021 159.153 32.8265C158.051 32.8448 155.196 32.8911 154.131 32.9179ZM161.265 34.0384C160.565 34.3213 159.8 34.4493 159.048 34.4054C159.799 34.3713 160.542 34.2457 161.265 34.0384Z" fill="url(#paint2_linear_157_296)"/>
<path d="M150.242 32.6343V32.8372C150.23 32.836 150.218 32.836 150.206 32.8347V32.6367C150.218 32.6355 150.23 32.6355 150.242 32.6343Z" fill="white"/>
<path d="M72.0295 29.7732C72.4406 29.6776 72.7704 29.5186 73.0143 29.2964C73.2582 29.0741 73.5343 28.6991 73.8411 28.1682L78.124 20.8221C78.2099 20.6291 78.2574 20.4995 78.2682 20.4316C78.2774 20.393 78.282 20.3452 78.282 20.2865C78.282 20.1615 78.2298 20.0597 78.124 19.9825C78.0181 19.9053 77.8555 19.8436 77.6346 19.7942L77.6484 19.7217H79.6027L80.9817 27.9923C81.0769 28.5509 81.2026 28.9615 81.356 29.2207C81.5094 29.4816 81.7779 29.6637 82.1614 29.7702L82.1476 29.8427H79.0137L79.0275 29.7702C79.3051 29.7223 79.5137 29.6405 79.6533 29.5248C79.7914 29.409 79.8804 29.2593 79.9187 29.0772C79.9479 28.9707 79.9617 28.8596 79.9617 28.7439C79.9617 28.5803 79.9279 28.3303 79.8604 27.9923L79.6012 26.4304H75.2033L74.197 28.1651C73.8994 28.676 73.7521 29.0371 73.7521 29.2501C73.7521 29.3951 73.8074 29.5063 73.9178 29.5834C74.0283 29.6606 74.1924 29.7239 74.4133 29.7717L74.3995 29.8442H72.0142L72.028 29.7717L72.0295 29.7732ZM75.392 26.1295H79.5598L78.6118 20.5767L75.3644 26.1434L75.3935 26.1295H75.392Z" fill="white"/>
<path d="M85.7693 20.6637C85.8076 20.4322 85.8276 20.2871 85.8276 20.23C85.8276 20.0464 85.7678 19.9167 85.6481 19.8396C85.5285 19.7624 85.3244 19.7238 85.0376 19.7238L85.0667 19.5787L87.0931 19L86.1881 23.3089C86.9934 22.7502 87.8064 22.4709 88.6317 22.4709C89.4569 22.4709 90.1258 22.7209 90.5583 23.2225C90.9894 23.7241 91.2057 24.3599 91.2057 25.1316C91.2057 25.4696 91.1719 25.7875 91.1044 26.0853C90.9694 26.7505 90.7071 27.3817 90.3144 27.979C89.9217 28.5762 89.4309 29.0608 88.8418 29.4328C88.2528 29.8047 87.6039 29.9899 86.8937 29.9899C86.0792 29.9899 85.4042 29.7152 84.8673 29.1658L83.8902 29.9899H83.8043L85.7739 20.6637H85.7693ZM88.8879 28.7105C89.4431 28.1086 89.8128 27.3724 89.9938 26.5051C90.0705 26.1193 90.1089 25.7628 90.1089 25.4356C90.1089 24.7025 89.9524 24.0914 89.6426 23.5991C89.3312 23.1067 88.8925 22.8614 88.328 22.8614C87.5809 22.8614 86.8339 23.1747 86.0853 23.8012L85.0499 28.7028C85.26 29.0114 85.5269 29.2399 85.8475 29.3896C86.1681 29.5393 86.4872 29.6133 86.8032 29.6133C87.6361 29.6133 88.331 29.3124 88.8879 28.709V28.7105Z" fill="white"/>
<path d="M93.0066 29.2598C92.5326 28.7736 92.2948 28.0961 92.2948 27.2288C92.2948 26.8723 92.3378 26.5003 92.4237 26.116C92.5863 25.3552 92.8793 24.6993 93.3011 24.1499C93.723 23.6004 94.2261 23.1838 94.8105 22.8998C95.395 22.6158 96.0086 22.4738 96.6498 22.4738C97.4551 22.4738 98.0825 22.7192 98.532 23.2115L99.0642 20.6666C99.1026 20.4351 99.1225 20.29 99.1225 20.2329C99.1225 20.0493 99.0627 19.9197 98.9431 19.8425C98.8234 19.7653 98.6194 19.7267 98.3325 19.7267L98.3617 19.5817L100.388 19.0029L98.4905 27.9973C98.3847 28.5082 98.3325 28.8461 98.3325 29.0097C98.3325 29.2227 98.3847 29.3863 98.4905 29.5021C98.5964 29.6178 98.7835 29.7089 99.0504 29.7768L99.0366 29.8493H97.1253L97.3845 28.5915C97.087 29.0344 96.7234 29.3801 96.2924 29.6255C95.8613 29.8709 95.3766 29.9944 94.8412 29.9944C94.0942 29.9944 93.4837 29.7505 93.0081 29.2644L93.0066 29.2598ZM96.1681 29.34C96.4979 29.1564 96.7986 28.894 97.067 28.5514C97.3355 28.2088 97.5318 27.8121 97.6561 27.3584L98.4031 23.8011C98.2497 23.4538 98.0227 23.2038 97.7205 23.0495C97.4183 22.8952 97.067 22.818 96.6636 22.818C95.8675 22.818 95.171 23.122 94.5728 23.7285C93.9745 24.3366 93.5742 25.1067 93.3732 26.042C93.2873 26.4463 93.2444 26.8321 93.2444 27.1994C93.2444 27.9325 93.4116 28.5174 93.7475 28.9557C94.0834 29.394 94.5666 29.6132 95.1986 29.6132C95.5146 29.6132 95.8383 29.5221 96.1696 29.3385L96.1681 29.34Z" fill="white"/>
<path d="M101.486 29.6503C101.243 29.4234 101.12 29.0839 101.12 28.6301C101.12 28.2921 101.183 27.8446 101.307 27.2859L101.968 24.1329C102.006 23.9014 102.026 23.7564 102.026 23.6993C102.026 23.5156 101.967 23.386 101.847 23.3088C101.727 23.2316 101.523 23.193 101.236 23.193L101.266 23.048L103.292 22.4692L102.286 27.2411C102.18 27.752 102.128 28.1671 102.128 28.4851C102.128 28.8709 102.206 29.1549 102.365 29.3385C102.523 29.5222 102.78 29.6132 103.134 29.6132C103.517 29.6132 103.991 29.4805 104.557 29.215C105.122 28.9496 105.597 28.6147 105.981 28.2103L106.843 24.1329C106.881 23.9014 106.901 23.7564 106.901 23.6993C106.901 23.5156 106.841 23.386 106.722 23.3088C106.602 23.2316 106.398 23.193 106.111 23.193L106.14 23.048L108.167 22.4692L107.003 27.9927C106.897 28.5036 106.845 28.8416 106.845 29.0051C106.845 29.2181 106.897 29.3817 107.003 29.4975C107.108 29.6132 107.296 29.7043 107.562 29.7722L107.549 29.8447H105.637L105.881 28.7166C105.392 29.1024 104.866 29.411 104.3 29.6425C103.734 29.874 103.217 29.9898 102.747 29.9898C102.154 29.9898 101.733 29.8771 101.489 29.6503H101.486Z" fill="white"/>
<path d="M108.708 29.7738C109.024 29.7059 109.262 29.6056 109.42 29.4698C109.578 29.3355 109.693 29.1658 109.765 28.9636C109.837 28.7614 109.92 28.4389 110.017 27.9944L111.569 20.6637C111.607 20.4322 111.627 20.2871 111.627 20.23C111.627 20.0464 111.568 19.9167 111.448 19.8396C111.328 19.7624 111.124 19.7238 110.837 19.7238L110.867 19.5787L112.893 19L110.995 27.9944C110.89 28.5052 110.837 28.8432 110.837 29.0068C110.837 29.2198 110.89 29.3834 110.995 29.4991C111.101 29.6149 111.287 29.7059 111.555 29.7738L111.542 29.8464H108.696L108.71 29.7738H108.708Z" fill="white"/>
<path d="M116.439 29.7732C116.85 29.6776 117.18 29.5186 117.424 29.2964C117.668 29.0741 117.944 28.6991 118.251 28.1682L122.534 20.8221C122.62 20.6291 122.667 20.4995 122.678 20.4316C122.687 20.393 122.692 20.3452 122.692 20.2865C122.692 20.1615 122.64 20.0597 122.534 19.9825C122.428 19.9053 122.265 19.8436 122.044 19.7942L122.058 19.7217H124.013L125.392 27.9923C125.487 28.5509 125.613 28.9615 125.766 29.2207C125.919 29.4816 126.188 29.6637 126.571 29.7702L126.557 29.8427H123.424L123.437 29.7702C123.715 29.7223 123.924 29.6405 124.063 29.5248C124.201 29.409 124.29 29.2593 124.329 29.0772C124.358 28.9707 124.372 28.8596 124.372 28.7439C124.372 28.5803 124.338 28.3303 124.27 27.9923L124.011 26.4304H119.613L118.607 28.1651C118.309 28.676 118.162 29.0371 118.162 29.2501C118.162 29.3951 118.217 29.5063 118.328 29.5834C118.438 29.6606 118.602 29.7239 118.823 29.7717L118.809 29.8442H116.424L116.438 29.7717L116.439 29.7732ZM119.803 26.1295H123.971L123.023 20.5767L119.776 26.1434L119.805 26.1295H119.803Z" fill="white"/>
<path d="M133.12 29.875C133.095 29.8549 133.04 29.8457 132.954 29.8457H127.636L133.787 22.9332H131.488C130.845 22.9332 130.345 23.0628 129.986 23.3237C129.627 23.5845 129.279 24.0135 128.944 24.6108H128.815L129.779 22.4702H129.937C129.966 22.5273 129.992 22.5659 130.015 22.586C130.04 22.606 130.095 22.6153 130.181 22.6153H135.254L129.116 29.5278H131.659C132.301 29.5278 132.799 29.3997 133.154 29.145C133.508 28.8904 133.853 28.4583 134.189 27.8517H134.318L133.355 29.9923H133.197C133.167 29.9337 133.141 29.8966 133.117 29.8766L133.12 29.875Z" fill="white"/>
<path d="M135.066 29.7732C135.382 29.7053 135.62 29.6049 135.778 29.4691C135.936 29.3349 136.051 29.1651 136.123 28.9629C136.195 28.7608 136.278 28.4382 136.375 27.9937L137.194 24.1324C137.232 23.9009 137.252 23.7558 137.252 23.6987C137.252 23.5151 137.193 23.3854 137.073 23.3082C136.953 23.2311 136.749 23.1925 136.462 23.1925L136.492 23.0474L138.518 22.4687L137.354 27.9922C137.248 28.503 137.196 28.841 137.196 29.0046C137.196 29.2176 137.248 29.3812 137.354 29.4969C137.459 29.6127 137.645 29.7037 137.913 29.7716L137.9 29.8442H135.054L135.068 29.7716L135.066 29.7732ZM137.783 21.0967C137.668 20.9809 137.611 20.8359 137.611 20.663C137.611 20.4223 137.706 20.2047 137.898 20.0117C138.09 19.8188 138.309 19.7231 138.559 19.7231C138.742 19.7231 138.892 19.7818 139.012 19.896C139.131 20.0117 139.191 20.1568 139.191 20.3297C139.191 20.5797 139.09 20.8004 138.889 20.9871C138.688 21.1754 138.467 21.2695 138.228 21.2695C138.045 21.2695 137.898 21.2124 137.783 21.0967Z" fill="white"/>
<path d="M144.675 29.875C144.651 29.8549 144.595 29.8457 144.51 29.8457H139.191L145.343 22.9332H143.043C142.4 22.9332 141.9 23.0628 141.541 23.3237C141.182 23.5845 140.834 24.0135 140.5 24.6108H140.371L141.334 22.4702H141.492C141.521 22.5273 141.547 22.5659 141.57 22.586C141.595 22.606 141.65 22.6153 141.736 22.6153H146.809L140.672 29.5278H143.215C143.856 29.5278 144.355 29.3997 144.709 29.145C145.063 28.8904 145.408 28.4583 145.744 27.8517H145.873L144.91 29.9923H144.752C144.723 29.9337 144.697 29.8966 144.672 29.8766L144.675 29.875Z" fill="white"/>
<path d="M111.13 39.7283C111.078 40.0005 110.702 40.3091 110.413 40.2212C110.368 40.2212 109.95 40.027 109.643 40.1067C109.547 40.1498 109.45 40.1498 109.328 40.1946C109.118 40.2643 108.793 40.4684 108.592 40.5729C108.068 40.845 107.621 41.1802 107.454 41.3827C107.322 41.5585 107.052 41.8058 106.973 41.9103C106.806 42.121 106.938 42.0945 106.981 42.1045C107.227 42.1476 107.471 42.0348 107.883 41.902C108.434 41.6913 108.934 41.391 109.169 41.2499C109.905 40.8185 109.931 40.8633 110.824 40.1764C111.165 39.9042 111.234 39.8412 111.384 39.7001C111.594 39.4977 111.884 39.136 112.287 38.6166C112.715 37.9479 113.189 37.2958 113.634 36.6437C113.957 36.1675 114.361 35.4822 114.825 35.1122C115.018 35.0425 115.193 35.0939 115.288 35.2084C115.498 35.3146 115.447 35.746 115.254 36.0099C115.245 36.053 115.148 36.1509 115.132 36.1592L115 36.2554C114.615 36.5458 114.518 36.7051 114.238 36.9507L114.185 37.0204C113.396 38.0773 112.61 39.0016 112.006 40.1813C111.805 40.6045 111.175 41.3959 111.596 41.9949C111.744 42.1974 112.191 42.1891 112.41 42.1443C112.804 42.0912 113.654 41.9335 114.17 41.6681C114.424 41.5453 114.493 41.5453 114.835 41.3063C115.001 41.2366 115.036 41.3063 114.94 41.4291C114.782 41.6498 114.477 41.7991 114.074 42.0729C113.383 42.5226 112.166 43.0685 111.65 42.9275C111.16 42.7864 110.898 42.2853 110.959 41.5984C110.977 41.3163 111.055 41.0956 111.142 40.8235C111.211 40.5762 111.29 40.3921 111.388 40.2162C111.266 40.339 111.125 40.4634 110.967 40.5945C110.398 41.0525 110.53 40.8849 109.532 41.5187C109.199 41.6946 108.736 42.0729 108.36 42.2405C107.86 42.4429 107.073 42.8213 106.531 42.7682C106.075 42.7234 105.805 42.3451 106.014 41.9319C106.163 41.6498 106.618 41.1122 107.039 40.8401C107.415 40.5928 107.766 40.3821 108.097 40.2062C108.325 40.0917 109.148 39.7748 109.76 39.5807C110.18 39.4313 110.583 39.3085 110.845 39.3865C111.012 39.4479 111.16 39.5973 111.134 39.7217L111.13 39.7283Z" fill="white"/>
<path d="M115.829 41.5154C115.76 41.5071 115.715 41.4805 115.697 41.4357L115.575 41.5419C115.522 41.5851 115.427 41.7178 115.374 41.814C115.321 41.902 115.331 41.9816 115.331 42.0082C115.331 42.0878 115.427 42.131 115.514 42.1758C115.628 42.2289 115.847 42.3351 116.66 42.2554C116.933 42.2372 117.248 42.2554 117.939 42.0961C118.621 41.9468 118.989 41.7875 119.523 41.6199C119.769 41.5403 119.987 41.4789 120.251 41.3909C120.635 41.2764 120.838 41.1536 120.873 41.1271C120.96 41.0574 121.179 41.0475 121.118 41.215C121.074 41.3212 120.821 41.4092 120.584 41.5137C120.208 41.6896 119.779 41.8754 119.613 41.9269C119.166 42.0945 118.747 42.2256 118.247 42.3848C117.739 42.5076 117.398 42.6404 116.952 42.72C116.804 42.7466 116.523 42.808 116.34 42.8262C115.702 42.8876 115.414 42.8876 115.168 42.871C115.009 42.8627 114.94 42.8362 114.826 42.7914C114.704 42.7482 114.694 42.7034 114.607 42.6503C114.449 42.5541 114.371 42.3765 114.371 42.1741C114.371 42.0596 114.363 41.8837 114.459 41.7244C114.52 41.6448 114.633 41.4507 114.826 41.2665C114.993 41.1072 115.229 40.9147 115.448 40.7737C115.781 40.5629 115.885 40.4916 116.06 40.3953C116.218 40.3074 116.436 40.2361 116.857 40.0336C117.609 39.6719 117.96 39.584 118.397 39.506L118.738 39.4363C118.94 39.4097 119.693 39.3931 119.728 39.7449C119.736 39.8677 119.693 39.9656 119.509 40.1232C119.36 40.246 119.255 40.3439 119.019 40.4667C118.659 40.6608 117.986 40.9247 117.346 41.1619C117.251 41.1968 117.119 41.2416 116.952 41.2847C116.838 41.3378 116.716 41.3909 116.611 41.4258C116.418 41.5054 116.034 41.6465 115.832 41.5137L115.829 41.5154ZM116.18 41.0226H116.215C116.284 41.0226 116.416 41.0143 116.556 41.0043C116.662 40.996 116.67 41.0043 116.749 40.996L116.942 40.9612L117.144 40.8998C117.266 40.8649 117.371 40.8301 117.45 40.7936C117.835 40.626 118.448 40.3356 118.649 40.178C118.763 40.09 118.668 40.0369 118.658 40.0286C118.544 39.9855 118.465 39.9855 118.456 39.9855C118.298 40.0038 118.141 40.0038 117.755 40.1697C117.686 40.2045 117.546 40.2842 117.459 40.329L117.125 40.4883C116.855 40.621 116.591 40.7704 116.373 40.9114C116.312 40.9462 116.241 40.9811 116.18 41.0259V41.0226Z" fill="white"/>
<path d="M121.763 40.7761C121.991 40.7064 122.21 40.6434 122.359 40.6085C122.954 40.4592 123.391 40.4244 123.881 40.4144C123.889 40.353 123.907 40.2916 123.924 40.2468C123.993 40.0792 123.968 40.0178 124.072 39.8768C124.405 39.4719 125.07 38.9791 125.594 39.1633C125.69 39.1982 125.822 39.3043 125.883 39.374C125.909 39.4968 125.857 39.6993 125.787 39.8237C125.665 40.0344 125.2 40.1755 125.025 40.0344L124.938 39.973C124.869 39.9299 124.578 39.8768 124.57 40.0079C124.562 40.1406 124.544 40.2717 124.562 40.4128C124.615 40.4128 124.667 40.4045 124.72 40.4045C125.797 40.3862 125.937 40.3962 126.952 40.5107C127.092 40.5189 127.311 40.572 127.486 40.6434C127.6 40.6865 127.679 40.723 127.679 40.7662C127.732 40.8541 127.61 40.9338 127.539 40.9869C127.433 41.0566 127.303 41.0831 127.179 41.0051C127.039 40.9255 127.021 40.8558 126.82 40.8375C126.714 40.8027 126.46 40.723 126.155 40.6965C125.708 40.6616 125.175 40.6616 124.991 40.6616H124.597C124.649 40.8823 124.728 41.0931 124.806 41.2772C124.912 41.5062 124.946 41.7535 124.78 42.0173C124.684 42.1583 124.526 42.3077 124.369 42.4039C124.062 42.6329 123.554 42.827 122.871 42.8967C122.302 42.9664 121.725 42.9399 121.418 42.8884C121.146 42.8353 120.902 42.7291 120.691 42.598C120.464 42.4487 120.307 42.2811 120.297 42.0438C120.287 41.8066 120.464 41.5245 120.797 41.2607C120.998 41.1196 121.051 41.0748 121.331 40.9255C121.445 40.8724 121.418 40.8458 121.567 40.8193L121.76 40.7761H121.763ZM123.873 40.6716C123.505 40.6899 123.137 40.7247 122.779 40.8209C122.472 40.9006 122.123 40.9271 121.834 41.0234C121.728 41.0582 121.545 41.1727 121.458 41.2341C121.326 41.322 121.283 41.4631 121.212 41.6307C121.125 41.8414 121.255 42.0007 121.334 42.1152C121.456 42.2911 121.588 42.2911 121.702 42.3359C122.009 42.4504 122.367 42.618 122.744 42.5732C123.025 42.5284 123.104 42.4852 123.322 42.4504C123.488 42.4421 123.795 42.3276 123.899 42.1766C123.986 42.0621 124.179 41.9559 124.057 41.639C123.962 41.3917 123.882 40.9968 123.874 40.6699L123.873 40.6716Z" fill="white"/>
<path d="M127.085 41.0661C127.278 40.6696 127.445 40.2829 127.636 40.0274C127.855 39.6839 128.187 39.6308 128.441 39.596C128.581 39.5777 128.764 39.7188 128.791 39.8515C128.852 39.9926 128.738 40.1154 128.642 40.2133C128.484 40.3808 128.335 40.4505 128.24 40.5219C128.152 40.6181 128.047 40.6812 127.978 40.7426C127.819 40.8919 127.732 41.0064 127.628 41.2005C127.479 41.4826 127.453 41.6402 127.514 41.8875C127.601 42.2741 128.075 42.2227 128.363 42.1696C128.924 42.0468 129.483 41.9671 130.018 41.7829C130.385 41.6602 130.753 41.4843 131.076 41.2984C131.251 41.2636 131.426 41.3167 131.304 41.4312C130.446 41.9953 129.256 42.664 128.152 42.8134C127.644 42.8831 127.014 42.8134 126.84 42.2758C126.717 41.8974 126.874 41.5191 127.085 41.0694V41.0661ZM130.174 36.4964C130.28 36.5578 130.376 36.6192 130.219 36.8582C129.938 37.2365 129.851 37.3244 129.518 37.5003C129.5 37.5086 129.168 37.633 128.993 37.4655C128.932 37.4041 128.967 37.2813 128.932 37.2099C128.837 36.9196 129.292 36.752 129.633 36.6109C129.765 36.5495 129.729 36.5844 129.808 36.5495C130.001 36.4798 130.105 36.4699 130.176 36.4964H130.174Z" fill="white"/>
<path d="M137.429 42.141C137.132 42.2903 136.939 42.37 136.747 42.5193L135.907 43.198C134.909 44.8888 134.007 45.9806 132.572 47.5918C132.31 47.9087 132.021 48.2256 131.715 48.5425C131.672 48.5774 130.357 50.162 129.894 49.9861C129.78 49.9513 129.754 49.8368 129.772 49.6957C129.798 49.4402 129.841 49.193 129.912 49.0353C130.044 48.7367 130.105 48.5508 131.146 47.2566C131.688 46.5879 132.818 45.4695 133.491 44.8606C133.92 44.4739 134.357 44.1122 134.83 43.7422L135.277 43.3722C135.618 42.7997 135.889 42.2107 136.021 41.5934C136.055 41.4076 135.671 41.1885 135.6 41.2068C135.478 41.2416 135.355 41.2333 135.259 41.2499C134.988 41.2947 134.83 41.3644 134.541 41.4789C134.165 41.6465 133.499 41.8838 132.879 42.1393C132.424 42.3235 132.101 42.4828 131.68 42.579C131.296 42.667 130.936 42.7549 130.709 42.6321C130.499 42.5093 130.481 42.3235 130.481 42.1559C130.489 41.9535 130.656 41.7593 130.918 41.4773C131.418 40.9662 132.353 40.3406 133.351 39.9457C134.208 39.6106 134.602 39.4878 135.058 39.3384C135.251 39.277 135.828 39.3301 136.011 39.3467C136.133 39.3733 136.151 39.4081 136.194 39.5143L136.239 39.9192C136.239 40.1216 136.186 40.2096 136.037 40.2892C135.863 40.3689 135.643 40.412 135.503 40.2892C135.355 40.1482 134.934 39.8843 134.611 40.042C134.322 40.183 134.174 40.1299 133.605 40.4037C132.94 40.7123 132.424 41.0641 132.046 41.3644C131.888 41.4872 131.827 41.5752 131.723 41.6814C131.67 41.7427 131.627 41.8141 131.601 41.8755C131.583 41.9186 131.566 41.9634 131.706 41.9717C131.889 41.98 132.04 41.9535 132.196 41.9186C132.416 41.8755 132.468 41.8489 132.731 41.7776C133.23 41.6449 133.623 41.4872 134.009 41.3196C134.446 41.1354 134.832 40.9944 135.392 40.8086C135.83 40.641 136.671 40.4468 136.854 40.9579C136.968 41.2831 136.626 41.9618 136.338 42.4546L136.671 42.2605C136.872 42.1377 137.152 41.9618 137.756 41.688C137.941 41.5818 138.063 41.4939 138.298 41.4059C138.561 41.2997 138.709 41.1952 138.886 41.1504C138.938 41.1421 138.938 41.1321 139.034 41.1321C139.148 41.1321 139.331 41.2914 139.323 41.4225C139.314 41.5022 139.253 41.5901 139.148 41.6515C138.99 41.7394 138.886 41.6697 138.666 41.7477C138.552 41.7826 138.457 41.766 138.282 41.7925C138.176 41.8274 138.054 41.8539 137.949 41.8888C137.888 41.907 137.835 41.9336 137.739 41.9767C137.607 42.0381 137.573 42.0647 137.433 42.136L137.429 42.141ZM134.787 44.1222L134.673 44.2284C133.728 45.0381 132.546 46.4303 131.751 47.3545C131.226 47.98 131.156 48.3053 131.147 48.4032C131.848 47.7162 131.558 48.131 132.18 47.3993C133.247 46.1581 133.956 45.3915 134.789 44.1238L134.787 44.1222Z" fill="white"/>
<path d="M139.75 39.9313C139.855 39.7902 140.03 39.6409 140.213 39.5961C140.51 39.4816 140.764 39.6492 140.738 39.9661C140.606 40.371 139.933 41.0048 139.661 41.3566C139.573 41.4628 139.539 41.5508 139.573 41.5591C139.6 41.5591 139.643 41.6039 139.793 41.5325C139.943 41.4612 140.152 41.3483 140.213 41.3118C140.494 41.1442 141.229 40.6863 141.947 40.2631C142.638 39.8848 143.199 39.621 143.548 39.6641C144.125 39.7338 144.109 40.1487 144.012 40.6863C143.959 40.9849 143.924 41.3019 143.916 41.506C143.916 41.9639 144.327 42.1581 144.731 42.1581C145.239 42.1581 145.86 41.9025 146.253 41.7084V41.7001C146.271 41.6918 146.296 41.6918 146.314 41.6918C146.56 41.6735 146.568 41.8328 146.367 41.9473C145.666 42.3173 144.835 42.8102 144.213 42.7571C143.845 42.7305 143.424 42.3953 143.382 41.9025C143.355 41.6287 143.355 41.3998 143.39 41.1094C143.408 40.9335 143.39 40.8008 143.372 40.7045C143.354 40.6249 143.284 40.5369 143.223 40.4938C143.17 40.4589 143.057 40.3876 142.908 40.4141C142.62 40.4672 142.217 40.5734 141.754 40.819C141.299 41.0662 140.852 41.4097 140.484 41.6387C140.177 41.8328 139.679 42.2726 139.39 42.4219C139.224 42.5015 139.11 42.5978 138.927 42.6326C138.848 42.6592 138.787 42.6857 138.717 42.6675C138.482 42.6409 138.384 42.553 138.297 42.3422C138.279 42.1133 138.437 41.8843 138.63 41.6204C138.726 41.4877 138.84 41.3118 138.927 41.1973C139.094 40.9501 139.268 40.7211 139.409 40.5552C139.663 40.1769 139.601 40.1586 139.724 39.9827C139.742 39.9645 139.742 39.9479 139.75 39.9379V39.9296V39.9313Z" fill="white"/>
</g>
<defs>
<linearGradient id="paint0_linear_157_296" x1="37.7039" y1="1.94233" x2="89.0986" y2="14.6418" gradientUnits="userSpaceOnUse">
<stop offset="0.161582" stop-color="#F051A3"/>
<stop offset="0.539604" stop-color="#2067F4"/>
<stop offset="1" stop-color="#4CBAFF" stop-opacity="0"/>
</linearGradient>
<linearGradient id="paint1_linear_157_296" x1="12.2476" y1="38.043" x2="25.9844" y2="62.9643" gradientUnits="userSpaceOnUse">
<stop offset="0.161582" stop-color="#F051A3"/>
<stop offset="0.539604" stop-color="#2067F4"/>
<stop offset="1" stop-color="#4CBAFF" stop-opacity="0"/>
</linearGradient>
<linearGradient id="paint2_linear_157_296" x1="52.0767" y1="30.4139" x2="53.2306" y2="49.8211" gradientUnits="userSpaceOnUse">
<stop offset="0.161582" stop-color="#F051A3"/>
<stop offset="0.539604" stop-color="#2067F4"/>
<stop offset="1" stop-color="#4CBAFF" stop-opacity="0"/>
</linearGradient>
<clipPath id="clip0_157_296">
<rect width="163" height="56" fill="white" transform="translate(0.5)"/>
</clipPath>
</defs>
</svg>
